<?xml version="1.0" encoding="utf-8"?>
<svg version="1.1" xmlns:xlink="http://www.w3.org/1999/xlink" width="32px" height="32px" xmlns="http://www.w3.org/2000/svg">
  <g transform="matrix(1 0 0 1 -1310 -14 )">
    <path d="M 16 32  C 7.1634440027073 32  0 24.8365559972927  0 16  C 0 7.1634440027073  7.1634440027073 0  16 0  C 24.8365559972927 0  32 7.1634440027073  32 16  C 32 24.8365559972927  24.8365559972927 32  16 32  Z M 29.9992546133164 15.9999999801571  C 29.9992546133164 8.26830457252796  23.7316953966706 2.00041165019992  16 2  C 8.26830460332939 2.00041165019992  2.00074538668365 8.26830457252797  2.00074538668365 15.9999999801571  C 2.00074538668365 19.176484277709  3.08096622688325 22.2585428580626  5.064 24.74  C 6.484 22.452  9.61 20  16 20  C 22.39 20  25.514 22.45  26.936 24.74  C 28.9190337731167 22.2585428580626  29.9992546133164 19.176484277709  29.9992546133164 15.9999999801571  Z " fill-rule="nonzero" fill="#d7d7d7" stroke="none" transform="matrix(1 0 0 1 1310 14 )" />
  </g>
</svg>