<?xml version="1.0" encoding="utf-8"?>
<svg version="1.1" xmlns:xlink="http://www.w3.org/1999/xlink" width="18px" height="16px" xmlns="http://www.w3.org/2000/svg">
  <g>
    <path d="M 13.942 1.94  L 13.94 1.94  C 14.2188925535905 1.6744842522077  14.589215230951 1.52639403960913  14.9742862228135 1.52639403960913  C 15.8027133475597 1.52639403960913  16.4742862228135 2.19796691486294  16.4742862228135 3.02639403960913  C 16.4742862228135 3.40169044762942  16.3336017840551 3.76335306074889  16.08 4.04  L 8.1 14.02  C 7.81617780079867 14.3257027023763  7.41787388435011 14.4994094659369  7.00072980492476 14.4994094659369  C 6.60287094478125 14.4994094659369  6.22131022730757 14.3413471674051  5.94 14.06  L 0.648 8.768  C 0.343505327580159 8.48426890574041  0.170583426132275 8.0867809025564  0.170583426132275 7.67058342613227  C 0.170583426132275 6.84215630138608  0.842156301386085 6.17058342613227  1.67058342613227 6.17058342613227  C 2.0867809025564 6.17058342613227  2.48426890574041 6.34350532758016  2.768 6.648  L 6.956 10.834  L 13.902 1.984  C 13.9145057368754 1.96860176615084  13.9278597693555 1.95391233042269  13.942 1.94  Z " fill-rule="nonzero" fill="#007979" stroke="none" />
  </g>
</svg>