<?xml version="1.0" encoding="UTF-8"?>
<svg width="129px" height="40px" viewBox="0 0 129 40" version="1.1" xmlns="http://www.w3.org/2000/svg" xmlns:xlink="http://www.w3.org/1999/xlink">
    <title>logo文字组合备份@1x</title>
    <defs>
        <linearGradient x1="75.9884784%" y1="15.3431145%" x2="33.3452837%" y2="89.7336137%" id="linearGradient-1">
            <stop stop-color="#00AD98" offset="0%"></stop>
            <stop stop-color="#00BEA7" offset="53.6713287%"></stop>
            <stop stop-color="#00AE99" offset="100%"></stop>
        </linearGradient>
        <path d="M30.1181102,2.65787635 C36.2986186,6.19769776 40.1181102,12.8401586 40.1181102,19.9904464 C40.1181102,22.0220149 39.8103827,24.0097368 39.2278628,25.8965273 L39.2185047,25.891204 L39.1757691,26.050535 C39.042819,26.4700702 38.7589544,26.8431117 38.3480445,27.0805158 C37.9201097,27.3277561 37.4337583,27.3820281 36.9896095,27.2703115 L36.8252284,27.2206897 L28.3656511,22.3351776 C27.6992024,21.9204805 27.2555373,21.1810523 27.2555373,20.3379285 C27.2555373,19.9813646 27.3348874,19.6433468 27.4768805,19.3405937 L27.5694599,19.1633074 L27.5669608,19.1620961 L29.0318675,16.6251219 L29.1080387,16.4790945 C29.5005585,15.6411443 29.2317715,14.6373351 28.4731472,14.1080594 L28.3342225,14.0197141 L22.8115756,10.8290184 C21.8606414,10.279614 20.6573066,10.5639671 20.0468804,11.4554202 L19.9598689,11.5936631 L12.5228146,24.4839896 C11.9737925,25.435586 12.2579477,26.6397588 13.1487804,27.2506102 L13.2869271,27.3376822 L18.7209997,30.4771972 C19.6335161,31.0043872 20.7876195,30.7335214 21.3762189,29.8810045 L21.4643385,29.7415945 L23.1417912,26.8315915 L23.2243967,26.702821 C23.6475917,26.0853065 24.3578266,25.6802342 25.1626054,25.6802342 C25.5189212,25.6802342 25.8567038,25.7596395 26.1592462,25.9017315 L26.3364091,25.9943754 L26.3396275,25.9882647 L34.7600174,30.8507184 C35.1398247,31.1856804 35.3794287,31.676114 35.3794287,32.2225491 C35.3794287,32.6972529 35.1986021,33.1296929 34.9021181,33.4546546 L34.7856424,33.5713499 L34.8011713,33.580166 C33.4558136,35.0360705 31.8836757,36.302957 30.1181102,37.3230165 C23.9300887,40.8981604 16.3061318,40.8981604 10.1181102,37.3230165 C3.9300887,33.7478726 0.118110236,27.1407342 0.118110236,19.9904464 C0.118110236,12.8401586 3.92200036,6.19405951 10.1181102,2.65787635 C16.3142201,-0.878306819 23.9376018,-0.881945069 30.1181102,2.65787635 Z" id="path-2"></path>
        <linearGradient x1="30.8037444%" y1="43.8451713%" x2="85.146393%" y2="75.5841602%" id="linearGradient-4">
            <stop stop-color="#009B8F" offset="0%"></stop>
            <stop stop-color="#00665A" offset="100%"></stop>
        </linearGradient>
    </defs>
    <g id="logo文字组合备份" stroke="none" stroke-width="1" fill="none" fill-rule="evenodd">
        <g id="编组">
            <g id="编组-4" transform="translate(48.000000, 3.000000)">
                <path d="M33.9217329,12.4379687 L33.9217329,21.201083 L33.9199426,21.3447674 C33.8437095,24.4007767 31.342483,26.8547052 28.2681107,26.8547052 L28.2681107,26.8547052 L28.2681107,23.4625319 L28.4271517,23.4570262 C29.5830252,23.3767226 30.499676,22.4278125 30.5288435,21.2585568 L30.5288435,21.2585568 L30.5295596,21.201083 L30.5295596,12.4379687 L33.9217329,12.4379687 Z M7.915071,0 L7.915,2.826 L8.48043322,2.82681107 L8.48043322,5.65362215 L7.915,5.653 L7.915071,26.5720241 L4.52289772,26.5720241 L4.523,5.653 L0,5.65362215 L0,2.82681107 L4.523,2.826 L4.52361382,2.20397512 C4.55278128,1.03471938 5.46943214,0.0858092939 6.62530557,0.00550568646 L6.78434658,0 L7.915071,0 Z M63.320568,0 L63.320568,26.5720241 L59.9283947,26.5720241 L59.929,5.653 L55.405497,5.65362215 L55.405497,2.82681107 L59.929,2.826 L59.9291108,2.20397512 C59.9582783,1.03471938 60.8749292,0.0858092939 62.0308026,0.00550568646 L62.1898436,0 L63.320568,0 Z M34.3359145,22.7880089 C34.7323811,23.3491983 35.3784039,23.7215899 36.1124943,23.7441293 L36.1831817,23.745213 L53.1440482,23.745213 L53.1433321,24.368049 C53.1141646,25.5373047 52.1975137,26.4862148 51.0416403,26.5665184 L50.8825993,26.5720241 L36.1831817,26.5720241 C34.9309287,26.5720241 33.773766,26.164894 32.8368383,25.4757785 C33.5629349,24.747627 34.0915818,23.8227353 34.3359145,22.7880089 Z M79.4333911,0 L79.433,2.826 L80.2814345,2.82681107 L80.2814345,5.65362215 L79.433,5.653 L79.4333911,20.9184019 L79.4316009,21.0620863 C79.3553677,24.1180956 76.8541412,26.5720241 73.779769,26.5720241 L73.779769,26.5720241 L72.9317257,26.5720241 L72.9317257,23.745213 L73.779769,23.745213 L73.93881,23.7397073 C75.0946834,23.6594037 76.0113343,22.7104936 76.0405018,21.5412379 L76.0405018,21.5412379 L76.0412179,21.4837642 L76.041,17.808 L73.5127924,17.8089098 C73.3759887,15.4074186 72.9518972,12.6206882 72.240518,9.44871861 L72.0836824,8.76311433 L74.8476754,8.76311433 C75.3361839,10.5049961 75.734242,12.209664 76.0418496,13.877118 L76.041,5.653 L72.3663635,5.65362215 L72.3663635,2.82681107 L76.041,2.826 L76.0412179,0 L79.4333911,0 Z M26.0066619,13.5686932 L26.0066619,23.1798508 L26.0055877,23.2660614 C25.9614251,25.0364392 24.5608809,26.4700527 22.8040394,26.5668175 L22.6144886,26.5720241 L9.04579543,26.5720241 L9.04579543,13.5686932 L26.0066619,13.5686932 Z M3.9575355,6.21898436 L3.9575355,21.201083 L3.9575355,21.201083 C3.9575355,25.549062 1.47905577,26.5720241 0,26.5720241 L0,23.7675436 C0.418097908,23.745213 1.13072443,22.7336686 1.13072443,21.4380605 L1.13072443,6.21898436 L1.13072443,6.21898436 L3.9575355,6.21898436 Z M59.3630325,6.21898436 L59.3630325,21.201083 L59.3630325,21.201083 C59.3630325,25.549062 56.8845528,26.5720241 55.405497,26.5720241 L55.405497,23.7675436 C55.8235949,23.745213 56.5362215,22.7336686 56.5362215,21.4380605 L56.5362215,6.21898436 L56.5362215,6.21898436 L59.3630325,6.21898436 Z M71.8010013,1.13072443 L71.8010013,3.9575355 C71.8010013,13.2668053 71.4579083,18.321121 70.010768,21.5042553 C70.5849693,22.3160621 71.2812268,23.0045269 72.1238999,23.5568002 L72.3663635,23.7094806 L72.3663635,26.5720241 C70.7355707,25.7880505 69.4181958,24.9922484 68.3613828,23.9571758 C67.3616427,24.9920987 66.0822386,25.7879767 64.4512925,26.5720241 L64.4512925,23.7094806 C65.3527311,23.1643392 66.075828,22.471761 66.6556465,21.6471362 C65.0260732,18.536407 64.4735474,13.6103234 64.4519557,4.52307056 L67.2783187,4.52494875 C67.282573,9.64300373 67.3591681,14.1645835 68.2981342,17.658857 C69.1137072,14.0353665 68.9741902,9.308479 68.9741902,3.9575355 L64.1686114,3.9575355 L64.1686114,1.13072443 L71.8010013,1.13072443 Z M15.83,21.483 L12.437,21.483 L12.437,23.745 L15.83,23.745 L15.83,21.483 Z M22.614,21.483 L19.222,21.483 L19.222,23.745 L21.4837642,23.745213 C22.0986386,23.745213 22.5988839,23.2544273 22.6141305,22.6432255 L22.614,21.483 Z M41.7820219,5.65362215 C41.7783596,6.03698177 41.766777,6.41440956 41.7464358,6.78492295 L52.2960048,6.78434658 L52.2960048,9.61115765 L41.3745339,9.61148338 C41.1088418,10.7877318 40.6997848,11.8395517 40.108019,12.7208297 L42.967,12.72 L42.9675283,10.7418821 L46.3597016,10.7418821 L46.359,12.72 L52.2960048,12.7206498 L52.2960048,15.5474609 L46.359,15.547 L46.359,17.526 L53.1440482,17.5262287 L53.1440482,20.3530397 L46.359,20.353 L46.3597016,23.1798508 L42.9675283,23.1798508 L42.967,20.353 L35.3351384,20.3530397 L35.3351384,17.5262287 L42.967,17.526 L42.967,15.547 L35.3351384,15.5474609 L35.3351384,12.6827849 C36.6561226,11.894463 37.421007,10.8499314 37.8551422,9.61147519 L35.3351384,9.61115765 L35.3351384,6.78434658 L38.3558298,6.78425221 C38.376858,6.41641214 38.3870371,6.03921469 38.3898486,5.65362215 L41.7820219,5.65362215 Z M15.83,16.395 L12.437,16.395 L12.437,18.656 L15.83,18.656 L15.83,16.395 Z M22.614,16.395 L19.222,16.395 L19.222,18.656 L22.614,18.656 L22.614,16.395 Z M16.3955042,1.13072443 L16.3955042,3.9575355 L12.155,3.957 L12.155,10.176 L13.286,10.176 L13.286012,6.50166547 L16.3955042,6.50166547 L16.3955042,13.0033309 L9.04579543,13.0033309 L9.04579543,1.13072443 L16.3955042,1.13072443 Z M22.8978094,12.9916673 L22.8971697,13.0033309 L21.201083,13.0033309 L21.201083,10.1765199 C22.1233947,10.1765199 22.8737627,9.44034132 22.8966326,8.52353852 L22.8971697,8.48043322 L22.897,3.957 L21.5477721,3.9578257 C21.4478871,8.95017534 19.9287811,12.3280674 17.249389,12.9917163 L17.249389,10.1649053 C18.2725702,9.5938173 18.446501,7.06504145 18.4224345,3.9575991 L17.5262287,3.9575355 L17.5262287,1.13072443 L26.0066619,1.13072443 L26.0066619,9.61115765 L26.0055877,9.69736826 C25.9622137,11.4361322 24.6104678,12.8500517 22.8978094,12.9916673 Z M28.2681107,6.21898436 C31.342483,6.21898436 33.8437095,8.67291285 33.9199426,11.7289222 L33.9217329,11.8726065 L30.5295596,11.8726065 L30.5288435,11.8151328 C30.499676,10.645877 29.5830252,9.69696694 28.4271517,9.61666333 L28.2681107,9.61115765 L28.2681107,6.21898436 Z M36.7485439,0 L36.748,1.13 L44.946,1.13 L44.9462961,0 L48.3384693,0 L48.338,1.13 L53.1440482,1.13072443 L53.1440482,3.9575355 L48.338,3.957 L48.3384693,5.08825993 L44.9462961,5.08825993 L44.946,3.957 L36.748,3.957 L36.7485439,5.08825993 L33.3563707,5.08825993 L33.356,3.957 L28.2681107,3.9575355 L28.2681107,1.13072443 L33.356,1.13 L33.3563707,0 L36.7485439,0 Z" id="形状结合备份-7" fill="#007365"></path>
                <path d="M2.20745677,35.5912251 L3.00235604,32.9379802 L3.79188437,35.5912251 L4.52233235,35.5912251 L5.91877702,31.2944722 L5.04331364,31.2944722 L4.12488272,34.0766197 L3.34072533,31.2944722 L2.65324487,31.2944722 L1.86908748,34.0712487 L0.961398446,31.2944722 L0.0805641156,31.2944722 L1.47700879,35.5912251 L2.20745677,35.5912251 Z M8.74671876,35.5912251 L9.54161804,32.9379802 L10.3311464,35.5912251 L11.0615943,35.5912251 L12.458039,31.2944722 L11.5825756,31.2944722 L10.6641447,34.0766197 L9.87998732,31.2944722 L9.19250687,31.2944722 L8.40834948,34.0712487 L7.50066044,31.2944722 L6.61982611,31.2944722 L8.01627078,35.5912251 L8.74671876,35.5912251 Z M15.2859808,35.5912251 L16.08088,32.9379802 L16.8704084,35.5912251 L17.6008563,35.5912251 L18.997301,31.2944722 L18.1218376,31.2944722 L17.2034067,34.0766197 L16.4192493,31.2944722 L15.7317689,31.2944722 L14.9476115,34.0712487 L14.0399224,31.2944722 L13.1590881,31.2944722 L14.5555328,35.5912251 L15.2859808,35.5912251 Z M20.4180562,35.5912251 L20.4180562,34.7694711 L19.5963022,34.7694711 L19.5963022,35.5912251 L20.4180562,35.5912251 Z M24.5618785,35.5912251 L24.5618785,34.7855839 L22.5048081,34.7855839 L22.5048081,31.2998432 L21.6561994,31.2998432 L21.6561994,35.5912251 L24.5618785,35.5912251 Z M26.4713893,35.5912251 L26.4713893,31.2998432 L25.6388934,31.2998432 L25.6388934,35.5912251 L26.4713893,35.5912251 Z M29.7343773,35.6664182 C30.03515,35.6664182 30.3028019,35.613604 30.537333,35.5079755 C30.771864,35.402347 30.9705889,35.2573316 31.1335074,35.0729292 C31.296426,34.8885269 31.4208528,34.6727941 31.5067878,34.4257309 C31.5927229,34.1786676 31.6356904,33.9119108 31.6356904,33.6254606 L31.6356904,33.6254606 L31.6356904,31.2944722 L30.7924527,31.2944722 L30.7924527,33.6684282 C30.7924527,33.8402983 30.7700737,33.9978459 30.7253159,34.141071 C30.6805581,34.2842961 30.6143164,34.4087229 30.5265911,34.5143514 C30.4388657,34.6199799 30.3278663,34.7023343 30.1935927,34.7614147 C30.0593192,34.820495 29.9008764,34.8500352 29.7182644,34.8500352 C29.5463943,34.8500352 29.3933225,34.8187047 29.259049,34.7560437 C29.1247755,34.6933827 29.0128809,34.6083428 28.9233652,34.500924 C28.8338495,34.3935052 28.7658176,34.2672881 28.7192694,34.1222727 C28.6727213,33.9772573 28.6494472,33.8223951 28.6494472,33.6576863 L28.6494472,33.6576863 L28.6494472,31.2944722 L27.8169513,31.2944722 L27.8169513,33.6523153 C27.8169513,33.9351849 27.8617092,34.1992562 27.9512248,34.4445291 C28.0407405,34.6898021 28.168748,34.9028494 28.3352471,35.0836711 C28.5017463,35.2644928 28.7031566,35.4068227 28.939478,35.5106609 C29.1757994,35.6144991 29.4407658,35.6664182 29.7343773,35.6664182 Z M35.8332221,35.5912251 L35.8332221,34.7855839 L33.7761517,34.7855839 L33.7761517,31.2998432 L32.927543,31.2998432 L32.927543,35.5912251 L35.8332221,35.5912251 Z M37.7427329,35.5912251 L37.7427329,31.2998432 L36.9102371,31.2998432 L36.9102371,35.5912251 L37.7427329,35.5912251 Z M39.6790984,35.5912251 L40.081919,34.7318745 L42.1658441,34.7318745 L42.5632938,35.5912251 L43.4763538,35.5912251 L41.446138,31.2944722 L40.7962542,31.2944722 L38.7660385,35.5912251 L39.6790984,35.5912251 Z M41.8382167,34.0390231 L40.3988045,34.0390231 L41.1238816,32.4921921 L41.8382167,34.0390231 Z M45.3160423,35.5912251 L45.3160423,32.5781271 L47.2549521,35.5912251 L48.0713351,35.5912251 L48.0713351,31.2944722 L47.2549521,31.2944722 L47.2549521,34.0981034 L45.434203,31.2944722 L44.4996593,31.2944722 L44.4996593,35.5912251 L45.3160423,35.5912251 Z M50.9261315,35.6717892 C51.1338079,35.6717892 51.3235812,35.6386684 51.4954513,35.5724268 C51.6673214,35.5061852 51.8159174,35.4175646 51.9412394,35.3065652 C52.0665614,35.1955657 52.1641335,35.0675583 52.2339557,34.9225429 C52.3037779,34.7775275 52.338689,34.6244557 52.338689,34.4633274 C52.338689,34.295038 52.315415,34.1437564 52.2688668,34.0094829 C52.2223186,33.8752094 52.1507061,33.7543632 52.0540292,33.6469444 C51.9573522,33.5395256 51.8320303,33.4410583 51.6780633,33.3515426 C51.5240963,33.262027 51.339694,33.1796725 51.1248564,33.1044794 C50.9565669,33.0436087 50.8160273,32.9872138 50.7032375,32.9352947 C50.5904477,32.8833756 50.5000369,32.8314565 50.432005,32.7795374 C50.363973,32.7276183 50.3156346,32.6739089 50.2869896,32.6184092 C50.2583445,32.5629095 50.244022,32.5011436 50.244022,32.4331117 C50.244022,32.3722411 50.2592397,32.3140559 50.289675,32.2585561 C50.3201104,32.2030564 50.3603924,32.1547179 50.4105212,32.1135407 C50.46065,32.0723635 50.5206255,32.0392427 50.5904477,32.0141783 C50.66027,31.9891139 50.7363583,31.9765817 50.8187127,31.9765817 C50.9977441,31.9765817 51.1535014,32.0043316 51.2859846,32.0598313 C51.4184678,32.115331 51.5384188,32.195 51.6458376,32.2988382 L51.6458376,32.2988382 L52.2258993,31.7134056 C52.0504485,31.5486968 51.8499334,31.4233748 51.6243539,31.3374398 C51.3987744,31.2515047 51.1212757,31.2085372 50.791858,31.2085372 C50.5949235,31.2085372 50.4114164,31.2389725 50.2413366,31.2998432 C50.0712568,31.3607138 49.9226607,31.4457537 49.7955485,31.5549629 C49.6684362,31.664172 49.5681786,31.7957601 49.4947758,31.949727 C49.4213729,32.103694 49.3846715,32.2719835 49.3846715,32.4545955 C49.3846715,32.6443687 49.4177923,32.8090776 49.4840339,32.9487221 C49.5502755,33.0883665 49.6380008,33.2101079 49.74721,33.3139461 C49.8564191,33.4177842 49.9835314,33.5064048 50.1285468,33.5798076 C50.2735622,33.6532105 50.4248437,33.7185569 50.5823913,33.775847 C50.7614227,33.8402983 50.9082284,33.8984835 51.0228085,33.9504026 C51.1373886,34.0023217 51.2269042,34.0533456 51.2913555,34.1034744 C51.3558068,34.1536032 51.4005647,34.2055223 51.4256291,34.2592317 C51.4506935,34.3129411 51.4632256,34.3738118 51.4632256,34.4418437 C51.4632256,34.506295 51.448008,34.5653753 51.4175726,34.6190847 C51.3871373,34.6727941 51.3459601,34.7193423 51.294041,34.7587292 C51.2421219,34.7981161 51.1812512,34.8294466 51.111429,34.8527207 C51.0416068,34.8759947 50.9673088,34.8876318 50.888535,34.8876318 C50.6951811,34.8876318 50.5161497,34.8580916 50.3514409,34.7990113 C50.186732,34.7399309 50.0184425,34.6387782 49.8465724,34.4955531 L49.8465724,34.4955531 L49.2557689,35.0917275 C49.3846715,35.1955657 49.5090983,35.2841863 49.6290493,35.3575891 C49.7490003,35.430992 49.8743223,35.4909675 50.0050152,35.5375156 C50.1357081,35.5840638 50.2753525,35.6180798 50.4239486,35.6395635 C50.5725446,35.6610473 50.7399389,35.6717892 50.9261315,35.6717892 Z M54.3556187,35.5912251 L54.3556187,33.6899119 L56.0474651,33.6899119 L56.0474651,35.5912251 L56.879961,35.5912251 L56.879961,31.2998432 L56.0474651,31.2998432 L56.0474651,33.0024315 L54.3556187,33.0024315 L54.3556187,31.2998432 L53.5231228,31.2998432 L53.5231228,35.5912251 L54.3556187,35.5912251 Z M60.1429489,35.6664182 C60.4437216,35.6664182 60.7113735,35.613604 60.9459046,35.5079755 C61.1804357,35.402347 61.3791605,35.2573316 61.5420791,35.0729292 C61.7049976,34.8885269 61.8294244,34.6727941 61.9153595,34.4257309 C62.0012945,34.1786676 62.0442621,33.9119108 62.0442621,33.6254606 L62.0442621,33.6254606 L62.0442621,31.2944722 L61.2010243,31.2944722 L61.2010243,33.6684282 C61.2010243,33.8402983 61.1786454,33.9978459 61.1338875,34.141071 C61.0891297,34.2842961 61.0228881,34.4087229 60.9351627,34.5143514 C60.8474374,34.6199799 60.7364379,34.7023343 60.6021644,34.7614147 C60.4678909,34.820495 60.3094481,34.8500352 60.1268361,34.8500352 C59.954966,34.8500352 59.8018942,34.8187047 59.6676206,34.7560437 C59.5333471,34.6933827 59.4214525,34.6083428 59.3319368,34.500924 C59.2424211,34.3935052 59.1743892,34.2672881 59.1278411,34.1222727 C59.0812929,33.9772573 59.0580188,33.8223951 59.0580188,33.6576863 L59.0580188,33.6576863 L59.0580188,31.2944722 L58.225523,31.2944722 L58.225523,33.6523153 C58.225523,33.9351849 58.2702808,34.1992562 58.3597965,34.4445291 C58.4493122,34.6898021 58.5773196,34.9028494 58.7438188,35.0836711 C58.910318,35.2644928 59.1117282,35.4068227 59.3480497,35.5106609 C59.5843711,35.6144991 59.8493375,35.6664182 60.1429489,35.6664182 Z M64.0504498,35.5912251 L64.0504498,34.7694711 L63.2286958,34.7694711 L63.2286958,35.5912251 L64.0504498,35.5912251 Z M67.4262275,35.6717892 C67.7950322,35.6717892 68.1325063,35.5948057 68.4386499,35.4408387 C68.7447936,35.2868717 69.0052842,35.0791953 69.2201218,34.8178095 L69.2201218,34.8178095 L68.6400602,34.2216351 C68.5039964,34.4185696 68.3339166,34.5770124 68.1298208,34.6969634 C67.9257251,34.8169144 67.691194,34.8768899 67.4262275,34.8768899 C67.2257124,34.8768899 67.0368343,34.8383982 66.8595933,34.7614147 C66.6823522,34.6844312 66.5274901,34.580593 66.3950069,34.4499001 C66.2625236,34.3192072 66.1577903,34.1670305 66.0808068,33.9933701 C66.0038233,33.8197097 65.9653316,33.6362025 65.9653316,33.4428486 C65.9653316,33.2459141 66.0038233,33.0606167 66.0808068,32.8869562 C66.1577903,32.7132958 66.2625236,32.5611192 66.3950069,32.4304263 C66.5274901,32.2997334 66.6823522,32.1958952 66.8595933,32.1189117 C67.0368343,32.0419282 67.2257124,32.0034364 67.4262275,32.0034364 C67.6768714,32.0034364 67.9069268,32.0616216 68.1163935,32.177992 C68.3258602,32.2943624 68.4968351,32.4474342 68.6293183,32.6372075 L68.6293183,32.6372075 L69.204009,32.046404 C68.9999133,31.7993407 68.7447936,31.5988256 68.4386499,31.4448586 C68.1325063,31.2908916 67.7950322,31.2139081 67.4262275,31.2139081 C67.1075517,31.2139081 66.8085693,31.2711981 66.5292804,31.3857782 C66.2499914,31.5003583 66.0065088,31.6588011 65.7988324,31.8611065 C65.591156,32.063412 65.4273423,32.2997334 65.3073913,32.5700707 C65.1874403,32.8404081 65.1274648,33.1313341 65.1274648,33.4428486 C65.1274648,33.7543632 65.1874403,34.0452892 65.3073913,34.3156266 C65.4273423,34.5859639 65.591156,34.8213902 65.7988324,35.0219053 C66.0065088,35.2224204 66.2499914,35.3808632 66.5292804,35.4972336 C66.8085693,35.613604 67.1075517,35.6717892 67.4262275,35.6717892 Z M72.187708,35.6717892 C72.4992226,35.6717892 72.7928341,35.613604 73.0685424,35.4972336 C73.3442507,35.3808632 73.585943,35.2224204 73.7936194,35.0219053 C74.0012958,34.8213902 74.1651095,34.5850688 74.2850605,34.3129411 C74.4050115,34.0408134 74.464987,33.7507826 74.464987,33.4428486 C74.464987,33.1313341 74.4050115,32.8404081 74.2850605,32.5700707 C74.1651095,32.2997334 74.0012958,32.063412 73.7936194,31.8611065 C73.585943,31.6588011 73.3442507,31.5003583 73.0685424,31.3857782 C72.7928341,31.2711981 72.4992226,31.2139081 72.187708,31.2139081 C71.8761935,31.2139081 71.5816869,31.2711981 71.3041882,31.3857782 C71.0266896,31.5003583 70.7841021,31.6579059 70.5764257,31.858421 C70.3687493,32.0589362 70.2049356,32.2952576 70.0849846,32.5673853 C69.9650336,32.8395129 69.9050581,33.1313341 69.9050581,33.4428486 C69.9050581,33.7543632 69.9650336,34.0452892 70.0849846,34.3156266 C70.2049356,34.5859639 70.3687493,34.8213902 70.5764257,35.0219053 C70.7841021,35.2224204 71.0266896,35.3808632 71.3041882,35.4972336 C71.5816869,35.613604 71.8761935,35.6717892 72.187708,35.6717892 Z M72.187708,34.8822608 C71.9871929,34.8822608 71.79921,34.8437691 71.6237592,34.7667856 C71.4483085,34.6898021 71.2952367,34.5859639 71.1645438,34.455271 C71.0338509,34.3245781 70.9309078,34.1715063 70.8557147,33.9960556 C70.7805215,33.8206048 70.7429249,33.6362025 70.7429249,33.4428486 C70.7429249,33.2459141 70.7805215,33.0606167 70.8557147,32.8869562 C70.9309078,32.7132958 71.0338509,32.5611192 71.1645438,32.4304263 C71.2952367,32.2997334 71.4483085,32.1958952 71.6237592,32.1189117 C71.79921,32.0419282 71.9871929,32.0034364 72.187708,32.0034364 C72.3846426,32.0034364 72.5708352,32.0419282 72.7462859,32.1189117 C72.9217367,32.1958952 73.0748085,32.2997334 73.2055014,32.4304263 C73.3361943,32.5611192 73.4391373,32.7132958 73.5143305,32.8869562 C73.5895237,33.0606167 73.6271202,33.2459141 73.6271202,33.4428486 C73.6271202,33.6362025 73.5895237,33.8206048 73.5143305,33.9960556 C73.4391373,34.1715063 73.3361943,34.3245781 73.2055014,34.455271 C73.0748085,34.5859639 72.9217367,34.6898021 72.7462859,34.7667856 C72.5708352,34.8437691 72.3846426,34.8822608 72.187708,34.8822608 Z M76.5195133,35.5912251 L76.5195133,32.7016588 L77.819281,35.0057925 L79.1727581,32.7231425 L79.1727581,35.5912251 L79.9891412,35.5912251 L79.9891412,31.2944722 L79.0814521,31.2944722 L77.8353938,33.4267358 L76.6430449,31.2944722 L75.7031302,31.2944722 L75.7031302,35.5912251 L76.5195133,35.5912251 Z" id="WWW.LIULIANSHU.COM" fill="#7FB79D" fill-rule="nonzero"></path>
            </g>
            <g id="编组" transform="translate(-0.138889, 0.000000)">
                <mask id="mask-3" fill="white">
                    <use xlink:href="#path-2"></use>
                </mask>
                <use id="蒙版备份" fill="url(#linearGradient-1)" xlink:href="#path-2"></use>
                <path d="M11.3466817,-8.04274269 L24.4484138,-0.478454146 C30.4367339,2.97890409 32.4884839,10.6361393 29.0311257,16.6244595 L29.1072643,16.4785961 C29.499616,15.6415877 29.2309442,14.6389066 28.4726447,14.1102257 L28.3337794,14.0219797 L22.8134973,10.8348698 C21.8629703,10.2860827 20.6601508,10.5701163 20.0499859,11.4605676 L19.9630117,11.5986551 L12.529142,24.4744952 C11.9803549,25.4250222 12.2643885,26.6278418 13.1548398,27.2380066 L13.2929273,27.3249808 L18.724673,30.4609676 C19.6367987,30.9875651 20.7904079,30.7170038 21.3787552,29.8654449 L21.4668371,29.7261915 C18.0094789,35.7145117 10.3522436,37.7662617 4.3639235,34.3089034 L-8.73780857,26.7446149 C-14.7261287,23.2872567 -16.7778787,15.6300214 -13.3205205,9.64170128 L-5.75623192,-3.4600308 C-2.29887369,-9.44835093 5.35836156,-11.5001009 11.3466817,-8.04274269 Z" id="路径" fill="url(#linearGradient-4)" opacity="0.886602493" mask="url(#mask-3)"></path>
            </g>
        </g>
    </g>
</svg>