<!-- Generator: Adobe Illustrator 25.1.0, SVG Export Plug-In  -->
<svg version="1.1" xmlns="http://www.w3.org/2000/svg" xmlns:xlink="http://www.w3.org/1999/xlink" x="0px" y="0px"
	 width="102.67px" height="32.01px" viewBox="0 0 102.67 32.01" style="overflow:visible;enable-background:new 0 0 102.67 32.01;"
	 xml:space="preserve">
<style type="text/css">
	.st0{fill:#FFFFFF;}
	.st1{fill:url(#蒙版备份_2_);}
	.st2{opacity:0.887;fill:url(#形状结合-2_2_);enable-background:new    ;}
	.st3{fill:url(#蒙版备份_3_);}
	.st4{opacity:0.887;fill:url(#形状结合-2_3_);enable-background:new    ;}
</style>
<defs>
</defs>
<g>
	<polygon class="st0" points="52.6,10.61 50.16,10.61 50.16,13.48 49.28,13.48 49.28,8.61 52.6,8.61 52.6,6.39 46.84,6.39 
		46.84,15.7 52.6,15.71 	"/>
	<path class="st0" d="M45.95,5.51h-0.94c-0.94,0.04-1.68,0.79-1.71,1.73v0.49h-3.54v2.22h3.54v16.39h2.66V9.94h0.44V7.72h-0.44V5.51
		z"/>
	<polygon class="st0" points="65.9,9.49 68.55,9.49 68.55,8.61 74.98,8.61 74.98,9.49 77.64,9.49 77.64,8.61 81.4,8.61 81.4,6.39 
		77.64,6.39 77.64,5.51 74.98,5.51 74.98,6.39 68.55,6.39 68.55,5.51 65.9,5.51 65.9,6.39 61.91,6.39 61.91,8.61 65.9,8.61 	"/>
	<polygon class="st0" points="66.34,14.81 66.34,14.81 66.34,14.81 	"/>
	<polygon class="st0" points="45.96,26.33 45.95,26.33 45.95,26.33 	"/>
	<path class="st0" d="M63.68,14.77v0.04h2.66V14.7c-0.06-2.37-1.97-4.27-4.34-4.32h-0.09v2.66C62.87,13.03,63.66,13.8,63.68,14.77z"
		/>
	<path class="st0" d="M40.64,22.31c0,1.01-0.56,1.81-0.89,1.82v2.2c1.16,0,3.1-0.8,3.1-4.21V10.38h-2.21V22.31z"/>
	<path class="st0" d="M76.09,23.67v-2.22h5.32v-2.22h-5.32v-1.55h4.65v-2.22h-4.65v-1.55h-2.66v1.55h-2.24
		c0.48-0.74,0.82-1.57,0.99-2.44h8.56v-2.22h-8.27c0.02-0.29,0.03-0.59,0.03-0.89h-2.66c0,0.3-0.01,0.6-0.03,0.89h-2.37v2.22h1.97
		c-0.34,1.02-1.04,1.87-1.97,2.41v2.24h5.98v1.55h-5.98v2.22h5.98v2.22L76.09,23.67z"/>
	<path class="st0" d="M46.84,26.33h5.32l0,0h5.32c1.45,0.01,2.63-1.15,2.66-2.59v-7.6H46.84V26.33z M54.82,18.36h2.66v1.77h-2.66
		V18.36z M54.82,22.34h2.66v0.91c-0.02,0.48-0.41,0.86-0.89,0.86h-1.78V22.34z M49.5,18.36h2.66v1.77H49.5V18.36z M49.5,22.34h2.66
		v1.77H49.5V22.34z"/>
	<path class="st0" d="M84.07,22.31c0,1.02-0.56,1.81-0.89,1.83l0,2.2c1.16,0,3.1-0.8,3.1-4.21V10.38h-2.22V22.31z"/>
	<path class="st0" d="M68.11,26.33l11.52,0c0.96,0.01,1.75-0.76,1.77-1.73v-0.49H68.11V26.33z"/>
	<path class="st0" d="M102.01,7.72V5.51h-2.66v2.22h-2.88v2.22h2.88v6.44c-0.24-1.31-0.55-2.64-0.94-4.01h-2.17
		c0.57,2.33,0.95,4.7,1.12,7.09h1.98v2.44v0.48c-0.02,0.96-0.81,1.73-1.77,1.73h-0.66v2.22h0.66l0.09,0.01
		c2.37-0.05,4.28-1.95,4.34-4.32v-0.11V9.94h0.66V7.72H102.01z"/>
	<path class="st0" d="M94.63,22.36c1.13-2.49,1.4-6.46,1.4-13.76V6.39h-5.98v2.21h3.77c0,4.2,0.11,7.9-0.53,10.74
		c-0.08-0.31-0.16-0.63-0.23-0.97c-0.48-3.08-0.67-6.2-0.57-9.32h-2.22c0.02,7.14,0.45,11,1.72,13.43c-0.46,0.65-1.04,1.2-1.72,1.61
		l0.01,2.24c1.13-0.49,2.17-1.19,3.06-2.05c0.93,0.85,1.99,1.54,3.14,2.05v-2.24C95.75,23.65,95.12,23.06,94.63,22.36z"/>
	<path class="st0" d="M86.72,7.23v0.02v0.47h-3.54v2.22h3.55v16.4h2.66l0,0V5.51h-0.95C87.5,5.54,86.75,6.3,86.72,7.23z"/>
	<path class="st0" d="M53.49,8.61h0.7c0.02,2.43-0.12,4.42-0.92,4.87v2.21c2.1-0.52,3.29-3.17,3.37-7.08h1.06v3.58
		c-0.02,0.72-0.61,1.3-1.33,1.3v2.22h1.34v-0.01c1.35-0.11,2.4-1.22,2.43-2.58V6.39h-6.65V8.61z"/>
	<rect x="63.68" y="15.25" class="st0" width="2.66" height="6.87"/>
	<path class="st0" d="M66.34,22.12L66.34,22.12h-2.66v0.05c-0.02,0.96-0.81,1.73-1.77,1.73v2.66l0.09,0
		c2.37-0.05,4.28-1.95,4.34-4.32V22.12z"/>
	<path class="st0" d="M66.66,23.37c-0.19,0.8-0.6,1.53-1.17,2.11h0c0.76,0.56,1.68,0.86,2.62,0.86v-2.22h-0.06
		C67.5,24.1,66.98,23.82,66.66,23.37z"/>
</g>
<g id="编组_2_1_" transform="translate(0 0)">
	
		<linearGradient id="蒙版备份_2_" gradientUnits="userSpaceOnUse" x1="217.0922" y1="431.342" x2="216.6662" y2="430.6" gradientTransform="matrix(32.0074 0 0 -32.0146 -6925.855 13813.2842)">
		<stop  offset="0" style="stop-color:#F1F1F1"/>
		<stop  offset="0.339" style="stop-color:#FFFFFF"/>
		<stop  offset="0.658" style="stop-color:#FFFFFF"/>
		<stop  offset="1" style="stop-color:#E6E6E6"/>
	</linearGradient>
	<path id="蒙版备份_1_" class="st1" d="M24.02,2.14c6.47,3.74,9.49,11.45,7.29,18.59H31.3l-0.03,0.13
		c-0.23,0.74-1,1.16-1.75,0.98l-0.13-0.04l-6.77-3.91c-0.81-0.5-1.12-1.54-0.71-2.4l0.07-0.14l1.17-2.03l0.06-0.12
		c0.32-0.67,0.1-1.47-0.51-1.9l-0.11-0.07l-4.42-2.54c-0.75-0.44-1.72-0.22-2.21,0.5l-0.07,0.11L9.95,19.6
		c-0.44,0.76-0.22,1.72,0.5,2.21l0.11,0.07l4.35,2.51c0.72,0.42,1.65,0.21,2.12-0.48l0.07-0.11l1.34-2.33l0.07-0.1
		c0.52-0.76,1.51-1.03,2.35-0.64L21,20.81l0,0l6.74,3.89c0.61,0.53,0.66,1.46,0.13,2.06c-0.01,0.01-0.01,0.01-0.02,0.02l-0.09,0.09
		l0.01,0.01c-6.01,6.48-16.14,6.87-22.62,0.86S-1.73,11.61,4.28,5.13C9.36-0.35,17.55-1.59,24.02,2.14z"/>
	
		<linearGradient id="形状结合-2_2_" gradientUnits="userSpaceOnUse" x1="211.991" y1="430.2407" x2="212.534" y2="429.9227" gradientTransform="matrix(24.495 0 0 -28.8068 -5184.4028 12404.9062)">
		<stop  offset="1.000000e-03" style="stop-color:#FFFFFF"/>
		<stop  offset="1" style="stop-color:#B8B8B8"/>
	</linearGradient>
	<path id="形状结合-2_1_" class="st2" d="M6.03,28.52c-6.91-5.5-8.06-15.57-2.55-22.48c4.21-5.29,11.3-7.36,17.7-5.17
		c3.5,3.16,4.33,8.33,1.98,12.42l0.05-0.09c0.32-0.67,0.1-1.48-0.51-1.9l-0.11-0.07l-4.42-2.55c-0.75-0.44-1.72-0.22-2.21,0.5
		L15.9,9.29L9.94,19.6c-0.44,0.76-0.22,1.72,0.5,2.21l0.11,0.07l4.35,2.51c0.72,0.42,1.65,0.21,2.12-0.48
		C14.77,27.7,10.31,29.57,6.03,28.52z"/>
</g>
</svg>
