<?xml version="1.0" encoding="utf-8"?>
<svg version="1.1" xmlns:xlink="http://www.w3.org/1999/xlink" width="16px" height="16px" xmlns="http://www.w3.org/2000/svg">
  <g transform="matrix(1 0 0 1 0 -828 )">
    <path d="M 9.6 14.4  L 9.6 1.6  C 9.59937167723958 1.15861732086117  9.24138393693478 0.801138825157376  8.80000081057712 0.801138825157376  C 8.61858740542391 0.801138825157376  8.4425607037066 0.862797851372448  8.3008 0.976  L 4.52 4  L 0.8 4  C 0.358172200135365 4  0 4.35817220013537  0 4.8  L 0 11.2  C 0 11.6418277998646  0.358172200135365 12  0.8 12  L 4.52 12  L 8.3008 15.024  C 8.4425607037066 15.1372021486276  8.61858740542391 15.1988611748426  8.80000081057712 15.1988611748426  C 9.24138393693478 15.1988611748426  9.59937167723958 14.8413826791388  9.6 14.4  Z M 4.8 5.6  C 4.98155006099646 5.59967656953946  5.15759101580357 5.53761084829336  5.2992 5.424  L 8 3.264  L 8 12.736  L 5.2992 10.576  C 5.15759101580357 10.4623891517066  4.98155006099646 10.4003234304605  4.8 10.4  L 1.6 10.4  L 1.6 5.6  L 4.8 5.6  Z M 12.3312 2.9088  C 13.6835513279444 4.25767508001844  14.4424863152939 6.08994452595638  14.44 8  C 14.4424863152939 9.91005547404363  13.6835513279444 11.7423249199816  12.3312 13.0912  L 11.2 11.96  C 12.2518239885223 10.9108133998415  12.8420478981636 9.48563859363444  12.84 8  C 12.8418708766851 6.51439649112219  12.2516739944045 5.08928694610332  11.2 4.04  L 12.3312 2.9088  Z " fill-rule="nonzero" fill="#7f7f7f" stroke="none" transform="matrix(1 0 0 1 0 828 )" />
  </g>
</svg>